<svg width="21" height="19" viewBox="0 0 21 19" fill="none" xmlns="http://www.w3.org/2000/svg">
<path fill-rule="evenodd" clip-rule="evenodd" d="M20.5178 13.0112V0.183594H2.74004L0.517822 2.45946V14.4595H6.07338V18.1836H8.51782L11.1845 15.4939H17.8512L20.5178 13.0112ZM7.40674 12.8044H3.85118C3.60674 12.8044 3.40674 12.6182 3.40674 12.3906V2.25264C3.40674 2.02505 3.60674 1.83885 3.85118 1.83885H18.0734C18.3179 1.83885 18.5178 2.02505 18.5178 2.25264V10.1147C18.5178 10.2285 18.4734 10.3319 18.3901 10.4095L15.9456 12.6854C15.8623 12.763 15.7456 12.8044 15.629 12.8044H11.5456L8.10118 15.0078C8.02896 15.0544 7.94007 15.0802 7.85118 15.0802C7.77896 15.0802 7.71229 15.0647 7.64563 15.0337C7.49563 14.9613 7.40674 14.8216 7.40674 14.6664V12.8044Z" fill="white"/>
<path d="M14.0733 9.18374V5.04581H12.2955V9.18374H14.0733ZM9.62885 9.18374V5.04581H7.85107V9.18374H9.62885Z" fill="white"/>
</svg>
