<svg width="21" height="17" viewBox="0 0 21 17" fill="none" xmlns="http://www.w3.org/2000/svg">
<path fill-rule="evenodd" clip-rule="evenodd" d="M21.5178 2.07859C20.7451 2.40059 19.9144 2.61559 19.0438 2.71359C19.9334 2.21359 20.6162 1.42159 20.938 0.479594C20.1044 0.941594 19.1827 1.27759 18.2011 1.45959C17.4164 0.673594 16.2958 0.183594 15.0573 0.183594C12.6782 0.183594 10.7479 1.99259 10.7479 4.22259C10.7479 4.53959 10.7859 4.84859 10.8599 5.14359C7.27925 4.97459 4.10446 3.36659 1.97927 0.923594C1.60841 1.52059 1.39649 2.21359 1.39649 2.95459C1.39649 4.35459 2.1572 5.59259 3.31276 6.31659C2.60703 6.29459 1.94328 6.11359 1.3615 5.81059C1.3615 5.82859 1.3615 5.84359 1.3615 5.86259C1.3615 7.81959 2.84594 9.45159 4.81718 9.82259C4.45632 9.91459 4.07447 9.96259 3.68262 9.96259C3.40472 9.96259 3.13483 9.93859 2.87193 9.89259C3.41972 11.4956 5.01111 12.6646 6.89639 12.6976C5.42195 13.7806 3.56466 14.4256 1.54543 14.4256C1.19756 14.4256 0.854694 14.4066 0.517822 14.3696C2.4241 15.5146 4.68923 16.1846 7.12231 16.1846C15.0473 16.1846 19.3806 10.0286 19.3806 4.69159C19.3806 4.51559 19.3756 4.34259 19.3676 4.16859C20.2093 3.59859 20.94 2.88759 21.5178 2.07859Z" fill="white"/>
</svg>
