<svg width="18" height="15" viewBox="0 0 18 15" fill="none" xmlns="http://www.w3.org/2000/svg">
<path opacity="0.3" d="M18 2.52777C17.3259 2.81341 16.611 3.00094 15.879 3.08412C16.6403 2.64625 17.226 1.95427 17.5016 1.12854C16.7767 1.54022 15.9837 1.83027 15.1567 1.98615C14.4587 1.27275 13.4826 0.86867 12.4615 0.870367C10.4229 0.870367 8.76838 2.45237 8.76838 4.40389C8.76838 4.68118 8.80099 4.95145 8.86484 5.20951C5.79529 5.0619 3.07483 3.65564 1.25308 1.51728C0.93499 2.03857 0.75355 2.64625 0.75355 3.29404C0.75355 4.51951 1.40524 5.60133 2.39593 6.23516C1.80938 6.21796 1.23569 6.06637 0.723004 5.79312V5.83818C0.723004 7.54987 1.99607 8.97823 3.68461 9.30356C3.14079 9.44448 2.5706 9.46515 2.0172 9.364C2.48734 10.7682 3.85158 11.7897 5.46686 11.8193C4.20321 12.7656 2.61113 13.3317 0.880558 13.3317C0.586291 13.3313 0.292287 13.3148 0 13.2822C1.63411 14.2846 3.57563 14.8704 5.66093 14.8704C12.4534 14.8704 16.1672 9.48446 16.1672 4.81384C16.1672 4.66107 16.1672 4.5083 16.1557 4.35663C16.8784 3.85623 17.5024 3.237 17.9989 2.52777H18Z" fill="white"/>
</svg>
